<?xml version="1.0" encoding="UTF-8" standalone="no"?>
<svg
   xmlns:dc="http://purl.org/dc/elements/1.1/"
   xmlns:cc="http://creativecommons.org/ns#"
   xmlns:rdf="http://www.w3.org/1999/02/22-rdf-syntax-ns#"
   xmlns:svg="http://www.w3.org/2000/svg"
   xmlns="http://www.w3.org/2000/svg"
   xmlns:sodipodi="http://sodipodi.sourceforge.net/DTD/sodipodi-0.dtd"
   xmlns:inkscape="http://www.inkscape.org/namespaces/inkscape"
   version="1.1"
   id="Layer_1"
   x="0px"
   y="0px"
   width="297mm"
   height="210mm"
   viewBox="0 0 1122.5197 793.70077"
   enable-background="new 0 0 792 1224"
   xml:space="preserve"
   sodipodi:docname="spaceCrash POS V3plain.svg"
   inkscape:version="0.92.5 (2060ec1f9f, 2020-04-08)"><sodipodi:namedview
   pagecolor="#ffffff"
   bordercolor="#666666"
   borderopacity="1"
   objecttolerance="10"
   gridtolerance="10"
   guidetolerance="10"
   inkscape:pageopacity="0"
   inkscape:pageshadow="2"
   inkscape:window-width="1848"
   inkscape:window-height="1016"
   id="namedview860"
   showgrid="false"
   showguides="true"
   inkscape:guide-bbox="true"
   inkscape:snap-global="true"
   inkscape:snap-bbox="true"
   inkscape:bbox-nodes="true"
   inkscape:snap-bbox-edge-midpoints="true"
   inkscape:snap-midpoints="true"
   inkscape:zoom="0.85223291"
   inkscape:cx="1265.5426"
   inkscape:cy="263.82401"
   inkscape:window-x="72"
   inkscape:window-y="27"
   inkscape:window-maximized="1"
   inkscape:current-layer="Layer_1"
   inkscape:lockguides="true"
   showborder="true"
   inkscape:document-rotation="0"><sodipodi:guide
     position="5726.7733,-1802.7014"
     orientation="1,0"
     id="guide1534"
     inkscape:locked="true" /></sodipodi:namedview><metadata
   id="metadata929"><rdf:RDF><cc:Work
       rdf:about=""><dc:format>image/svg+xml</dc:format><dc:type
         rdf:resource="http://purl.org/dc/dcmitype/StillImage" /><dc:title /></cc:Work></rdf:RDF></metadata><defs
   id="defs927">
	
	

		
		
		
		
		
		
		
		
		
		
	
			
			
			
			
		
			
			
		
				
				
				
			
	
	

		
		
		
		
		
		
		
		
		
		
		
		
	
			
			
			
		
			
			
			
		
			
			
		
			
			
		
				
					
				
			
				
					
				
			</defs>


<path
   id="line892"
   style="fill:none;stroke:#000000;stroke-width:1.89094;stroke-miterlimit:5.37868;stroke-dasharray:none;stroke-opacity:1"
   d="m -167.85619,834.9496 -6.1027,1493.1581 71.8109,-0.031 -4e-4,-567.6366 h 15.2271 v 567.6366 H 1626.8664 l 4e-4,-567.6561 16.3036,0.2347 -4e-4,567.6366 h 70.7339 l 10e-5,-1493.3418 H 773.02405 Z"
   sodipodi:nodetypes="cccccccccccccc" /><path
   style="fill:none;fill-opacity:1;stroke:#000000;stroke-width:1.88976;stroke-linecap:butt;stroke-linejoin:miter;stroke-miterlimit:5.37868;stroke-dasharray:none;stroke-opacity:1"
   d="m 8420.1295,3954.5954 10.1674,-3.3627 -17.3444,-51.1582 c -5.3475,-12.1959 11.0068,-24.2778 20.602,-9.0011 l 57.2048,106.9537 c 7.0995,17.2424 -4.2922,22.9151 -16.7409,22.5687 l -535.0125,0.8386 -32.7046,-22.6416 -9.2243,-669.185 c -1.0761,-12.6302 10.6967,-13.7637 13.5555,-6.8404 l 43.744,132.262 10.1674,-3.3627 -41.5825,-124.966 c -5.0703,-11.5304 -0.094,-19.2734 7.9062,-11.1176 l 201.7823,218.9467 c 10.1716,10.2346 -1.0324,11.4007 -8.1637,14.2946 l -56.2353,18.8194 4.2805,13.0236 74.377,-24.599 64.2051,194.121 13.0238,-4.2803 -60.6701,-183.122 c -4.6563,-12.4939 5.7698,-14.372 9.6442,-7.6521 l 215.9674,312.606 c 1.5796,1.9474 9.3974,12.1965 -2.9819,16.418 l -60.9321,19.694 3.3627,10.1674 70.61,-22.894 z"
   id="path1292"
   sodipodi:nodetypes="ccccccccccccccccccccccccccccc" /><path
   id="line892-2"
   style="display:inline;fill:none;stroke:#000000;stroke-width:1.88976;stroke-miterlimit:5.37868;stroke-dasharray:none;stroke-opacity:1"
   d="m -155.95889,2364.1097 c -9.941,0 -18,8.059 -18,18 v 485.998 l 71.8109,-0.031 V 2682.69 l 15.226697,0.031 v 185.3553 H 1626.8665 v -185.4062 l 16.3036,0.2347 v 185.3867 h 70.7339 v -485.998 c 0,-9.941 -8.059,-18 -18,-18 z"
   sodipodi:nodetypes="csccccccccccscc" /><g
   id="layer2"
   style="display:inline" /><rect
   style="fill:#000000;fill-opacity:0;stroke:#00000b;stroke-width:1.40901;stroke-miterlimit:5.52381"
   id="rect884"
   width="13.709104"
   height="633.90582"
   x="6629.7031"
   y="5492.5405"
   transform="rotate(-18.193548)" /><rect
   style="fill:#000000;fill-opacity:0;stroke:#00000b;stroke-width:1.40901;stroke-miterlimit:5.52381"
   id="rect884-8"
   width="13.709104"
   height="633.90582"
   x="5908.4209"
   y="-7184.8843"
   transform="rotate(71.806452)" /><path
   id="path1292-1"
   style="fill:none;fill-opacity:1;stroke:#b555e6;stroke-width:1.88976;stroke-linecap:butt;stroke-linejoin:miter;stroke-miterlimit:5.37868;stroke-dasharray:none;stroke-opacity:1"
   d="m 329.1302,296.4672 0.058,16.3988 h 78.33781 l 1e-5,201.2914 15.22708,-0.1311 V 321.1197 c -0.579,-13.3206 12.15519,-11.0876 17.53299,-4.3071 l 186.69832,325.7585 c 0.9114,2.336 5.2362,14.4792 -7.84071,14.7298 h -67.92247 v 16.3036 h 78.33781 l 0.6948,63.7798 h 15.69665 l -0.9391,-54.0103 c -0.053,-13.024 10.5938,-16.6772 26.5751,0.133 l 83.9895,79.4923 c 20.8048,21.6635 -4.7343,23.1362 -16.7409,22.5687 L 12.573986,786.6184 -2.6365143,764.2948 214.23869,63.445161 c 3.6493,-15.2319 21.9103,-9.4114 22.5308,-1.9468 V 213.4174 h 15.22711 l -0.098,-131.497641 c -0.88537,-11.791298 2.43688,-21.877998 8.083,-14.730998 L 403.1559,281.5838 c 7.64958,9.8983 0.8491,14.3574 -8.16369,14.2946 z"
   sodipodi:nodetypes="ccccccccccccccccccccccccccccc" /><path
   style="fill:none;stroke:#000000;stroke-width:1px;stroke-linecap:butt;stroke-linejoin:miter;stroke-opacity:1"
   d="m 8747.5802,3515.3504 c 757.5947,729.3684 757.5947,729.3684 757.5947,729.3684"
   id="path948" /><rect
   style="fill:#000000;fill-opacity:0;stroke:#b5005e;stroke-width:1.37414;stroke-miterlimit:5.52381;stroke-opacity:1"
   id="rect952"
   width="13.743974"
   height="151.91895"
   x="8725.5186"
   y="3509.314" /><path
   style="fill:none;stroke:#000000;stroke-width:1px;stroke-linecap:butt;stroke-linejoin:miter;stroke-opacity:1"
   d="m 8635.0979,3529.7543 c 0.1947,1.5574 12.2649,19.468 12.2649,19.468 l -7.7873,-19.468"
   id="path958"
   sodipodi:nodetypes="ccc" /><rect
   style="fill:#000000;fill-opacity:0;stroke:#b555e6;stroke-width:1.88976;stroke-miterlimit:5.52381;stroke-opacity:1"
   id="rect962"
   width="96"
   height="566.92914"
   x="6299.7476"
   y="4738.8813"
   transform="rotate(-12.691137)" /><rect
   style="fill:#000000;fill-opacity:0;stroke:#b555e6;stroke-width:1.66461;stroke-miterlimit:5.52381;stroke-opacity:1"
   id="rect964"
   width="28.733898"
   height="895.9306"
   x="7149.8486"
   y="2817.6272" /><rect
   style="fill:#000000;fill-opacity:0;stroke:#b555e6;stroke-width:1.88975;stroke-miterlimit:5.52381;stroke-opacity:1"
   id="rect968"
   width="37.745747"
   height="150.38364"
   x="7149.8486"
   y="3563.1731" /><rect
   style="fill:#000000;fill-opacity:0;stroke:#b555e6;stroke-width:1.57108;stroke-miterlimit:5.52381;stroke-opacity:1"
   id="rect990"
   width="13.547029"
   height="1191.1271"
   x="5713.2261"
   y="-1469.2402" /><path
   id="path1584"
   style="display:inline;fill:none;stroke:#000000;stroke-width:1.88976;stroke-miterlimit:5.37868;stroke-dasharray:none;stroke-opacity:1"
   d="m -155.95889,2890.1813 c -9.941,0 -18,8.059 -18,18 v 145.998 l 71.8109,-0.031 v -47.3867 l 15.226695,0.031 v 47.3553 l 1713.787895,0.7615 -10e-5,-48.1677 16.3036,0.2347 10e-5,48.1482 h 70.7339 l -10e-5,-146.7595 c 0,-9.941 -8.059,-18 -18,-18 z"
   sodipodi:nodetypes="csccccccccccscc" /><path
   id="path1620"
   style="fill:none;fill-opacity:1;stroke:#b555e6;stroke-width:1.88976;stroke-linecap:butt;stroke-linejoin:miter;stroke-miterlimit:5.37868;stroke-dasharray:none;stroke-opacity:1"
   d="m 693.58134,511.88335 -0.058,-16.3988 h -78.3378 v -201.2914 l -15.2271,0.1311 v 192.9066 c 0.579,13.3206 -12.1552,11.0876 -17.533,4.3071 l -186.6983,-325.7585 c -0.9114,-2.336 -5.2362,-14.4792 7.8407,-14.7298 h 67.9225 v -16.3036 h -78.3378 l -0.6948,-63.779748 h -15.6967 l 0.9391,54.010248 c 0.053,13.024 -10.5938,16.6772 -26.5751,-0.133 l -83.9895,-79.492218 c -20.8048,-21.6635 4.7343,-23.1362 16.7409,-22.5687 l 726.26106,-1.0504 15.2105,22.3236 -216.87515,700.849618 c -3.6493,15.2319 -21.9103,9.4114 -22.5308,1.9468 v -151.9191 h -15.2271 l 0.098,131.4977 c 0.8854,11.7913 -2.4369,21.878 -8.083,14.731 L 619.55564,526.76675 c -7.6496,-9.8983 -0.8491,-14.3574 8.1637,-14.2946 z"
   sodipodi:nodetypes="ccccccccccccccccccccccccccccc" /><g
   id="g1685"
   transform="translate(-2048.2327,1991.4621)"><path
     id="path1622"
     style="display:inline;fill:none;stroke:#000000;stroke-width:1.88976;stroke-miterlimit:5.37868;stroke-dasharray:none;stroke-opacity:1"
     d="m 1874.2738,1260.2707 v 152.6446 l 71.811,-0.031 0.01,-78.2461 15.2167,0.031 v 78.2147 h 1713.7877 v -78.2147 l 16.2937,0.1838 0.01,78.2461 h 70.7339 v -152.6427 z"
     sodipodi:nodetypes="ccccccccccccc" /><rect
     style="fill:none;fill-opacity:0.720588;stroke:#000000;stroke-width:1.88976;stroke-miterlimit:5.52381;stroke-opacity:1"
     id="rect1681"
     width="80.070648"
     height="10.95698"
     x="-1376.7202"
     y="2812.7268"
     transform="rotate(-90)" /></g><g
   id="g1693"
   transform="translate(-2048.2327,1816.7438)"><path
     id="path1689"
     style="display:inline;fill:none;stroke:#000000;stroke-width:1.88976;stroke-miterlimit:5.37868;stroke-dasharray:none;stroke-opacity:1"
     d="m 1874.2738,1260.2707 v 152.6446 l 71.811,-0.031 0.01,-78.2461 15.2167,0.031 v 78.2147 h 1713.7877 v -78.2147 l 16.2937,0.1838 0.01,78.2461 h 70.7339 v -152.6427 z"
     sodipodi:nodetypes="ccccccccccccc" /><rect
     style="fill:none;fill-opacity:0.720588;stroke:#000000;stroke-width:1.88976;stroke-miterlimit:5.52381;stroke-opacity:1"
     id="rect1691"
     width="80.070648"
     height="10.95698"
     x="-1376.7202"
     y="2812.7268"
     transform="rotate(-90)" /></g><path
   style="opacity:1;vector-effect:none;fill:none;fill-opacity:1;stroke:#000000;stroke-width:1;stroke-linecap:butt;stroke-linejoin:miter;stroke-miterlimit:4;stroke-dasharray:none;stroke-dashoffset:0;stroke-opacity:1;paint-order:stroke fill markers"
   d="m 1026.9059,289.72921 v 381.73242 83.15039 h 151.1816 79.3692 136.0644 V 671.46163 641.2253 h -136.0644 v 30.23633 h -79.3692 V 289.72921 Z"
   id="rect4570"
   inkscape:connector-curvature="0" /></svg>